<svg width="40" height="32" viewBox="0 0 40 32" fill="none"><path d="M30.4223 21.5456C30.2367 21.5584 30.0487 21.564 29.8623 21.564C29.7999 21.564 29.7374 21.564 29.6758 21.564C29.7904 21.1191 29.8706 20.666 29.9159 20.2087C29.9447 19.9135 29.9599 19.6143 29.9599 19.3111C29.96 18.9724 29.941 18.6339 29.9031 18.2974C29.0246 18.7333 28.0805 19.022 27.1084 19.1518C26.838 19.1887 26.5639 19.2126 26.286 19.2238C26.3744 18.7841 26.4295 18.3382 26.4508 17.8902C26.458 17.7413 26.462 17.5917 26.462 17.4413C26.4626 16.7977 26.3945 16.1559 26.2588 15.5268C25.571 15.9324 24.8322 16.2442 24.0618 16.454C23.7834 16.5298 23.4999 16.5924 23.2114 16.642L23.2041 16.6325C23.2881 16.2126 23.3416 15.7872 23.3642 15.3596C23.3738 15.1995 23.3778 15.0395 23.3778 14.8715C23.3779 14.3274 23.3289 13.7843 23.2314 13.249C22.2825 14.2443 21.1413 15.0362 19.8769 15.5767C18.6125 16.1173 17.2515 16.3951 15.8764 16.3932C14.2529 16.3958 12.6526 16.0077 11.2105 15.2619C11.8666 15.0075 12.4906 14.6769 13.0698 14.2771C11.5315 13.5383 10.2334 12.3799 9.32488 10.9353C8.4164 9.49077 7.93461 7.81894 7.93501 6.11247C7.93471 5.56563 7.98397 5.01988 8.08221 4.48194C8.17863 3.94875 8.32352 3.42547 8.51506 2.91862C8.70374 2.41868 8.93696 1.93671 9.2119 1.47851C9.52321 0.955863 9.8867 0.466121 10.2968 0.0167981C8.91227 0.646328 7.61544 1.45315 6.4389 2.41698C3.45763 4.85336 1.36062 8.20284 0.471249 11.9489C0.156919 13.277 -0.00122231 14.6372 2.25956e-05 16.002C-0.00470319 18.9404 0.731929 21.8325 2.14177 24.4106C2.2373 23.5638 2.45281 22.7349 2.78181 21.9489C3.84403 24.5156 5.52771 26.778 7.68136 28.5325C9.83501 30.287 12.3911 31.4786 15.1196 32C14.6507 31.3896 14.2624 30.7214 13.9643 30.0119C15.4168 30.4831 16.93 30.7415 18.4566 30.7791C18.5918 30.7791 18.7278 30.7839 18.8638 30.7839C21.2891 30.7876 23.6827 30.2324 25.8588 29.1614C25.4964 28.9569 25.1488 28.7273 24.8187 28.4741C27.2353 27.5482 29.3735 26.0167 31.0279 24.0266C31.7948 23.1053 32.4488 22.0957 32.9761 21.0192C32.1549 21.3178 31.2946 21.4951 30.4223 21.5456Z" fill="url(#paint0_linear_445_81706)"></path><path d="M34.457 13.2194C34.369 12.0702 34.1492 10.9349 33.8017 9.83593C33.6636 10.2086 33.4883 10.5664 33.2785 10.904C33.0071 9.10916 32.3776 7.38719 31.4273 5.84054C30.477 4.29388 29.2254 2.95413 27.7469 1.90094C26.7208 1.16704 25.5966 0.581002 24.4074 0.160012C24.2474 0.102941 24.0855 0.0496037 23.9218 0C25.043 1.44699 25.7509 3.17097 25.9699 4.98838C25.9779 5.05159 25.9851 5.11478 25.9915 5.17879C25.9919 5.18358 25.9919 5.18841 25.9915 5.1932C25.9979 5.25881 26.0043 5.32441 26.0091 5.39081V5.42521C26.0147 5.49082 26.0188 5.55642 26.0228 5.62202C26.0268 5.68763 26.0299 5.75403 26.0323 5.81964C26.0323 5.86604 26.0323 5.91324 26.0371 5.95965C26.0368 5.96711 26.0368 5.97459 26.0371 5.98205C26.0371 6.01005 26.0371 6.03886 26.0371 6.06686C26.0371 6.11727 26.0371 6.16846 26.0371 6.21887C26.0401 8.29592 25.4044 10.3237 24.2162 12.0273C24.3469 12.6458 24.4129 13.2761 24.413 13.9083C24.4132 14.3347 24.3833 14.7606 24.3234 15.1827C24.8989 15.0466 25.4593 14.8534 25.9963 14.6059C26.3952 14.4234 26.78 14.2116 27.1476 13.9723C27.2228 14.2339 27.2868 14.5003 27.3372 14.7723C27.4446 15.3348 27.4982 15.9062 27.4973 16.4788C27.4975 16.9341 27.4636 17.3888 27.3956 17.8389C28.1905 17.7565 28.9708 17.5681 29.7158 17.2789C30.1068 17.1274 30.4864 16.9483 30.8519 16.7429C30.9068 17.0489 30.9458 17.3576 30.9687 17.6677C30.9858 17.8928 30.9943 18.12 30.9943 18.3494C30.9947 18.9763 30.9301 19.6016 30.8015 20.2151C31.7376 20.1766 32.6619 19.992 33.5409 19.6679C34.1714 17.9803 34.4934 16.193 34.4914 14.3915C34.4983 13.9963 34.4869 13.6056 34.457 13.2194Z" fill="url(#paint1_linear_445_81706)"></path><defs><linearGradient id="paint0_linear_445_81706" x1="0" y1="0" x2="31.9101" y2="34.3965" gradientUnits="userSpaceOnUse"><stop offset="0.01" stop-color="#FF387E"></stop><stop offset="0.18" stop-color="#FF386D"></stop><stop offset="0.67" stop-color="#F44A53"></stop><stop offset="1" stop-color="#F35E3A"></stop></linearGradient><linearGradient id="paint1_linear_445_81706" x1="0" y1="0" x2="31.9101" y2="34.3965" gradientUnits="userSpaceOnUse"><stop offset="0.01" stop-color="#FF387E"></stop><stop offset="0.18" stop-color="#FF386D"></stop><stop offset="0.67" stop-color="#F44A53"></stop><stop offset="1" stop-color="#F35E3A"></stop></linearGradient></defs></svg>